<?xml version="1.0" encoding="UTF-8"?>
<svg width="24px" height="32px" viewBox="0 0 24 32" version="1.1" xmlns="http://www.w3.org/2000/svg" xmlns:xlink="http://www.w3.org/1999/xlink">
    <!-- Generator: Sketch 52.6 (67491) - http://www.bohemiancoding.com/sketch -->
    <title>loyalty-logo</title>
    <desc>Created with Sketch.</desc>
    <g id="Page-1" stroke="none" stroke-width="1" fill="none" fill-rule="evenodd">
        <g id="loyalty-logo">
            <path d="M0.563748311,4.13314532 C13.6206055,1.40008261 20.2275682,0.0261374937 20.3846366,0.0113099815 C20.6202392,-0.0109312867 21.3446809,-0.0816149058 21.3446809,0.783396192 C21.3446809,1.36007026 21.3446809,2.86961819 21.3446809,5.31203998 C7.65228858,5.31203998 0.723519084,5.31203998 0.558372275,5.31203998 C0.310652063,5.31203998 5.37496729e-05,5.26097387 7.10542736e-15,4.74357035 C-3.58331152e-05,4.39863468 0.18788027,4.19515967 0.563748311,4.13314532 Z" id="Path-4" fill="#FFBCBF"></path>
            <path d="M-5.3749673e-05,4.73724686 C0.0133412507,5.1016598 0.199483259,5.29114968 0.558372275,5.30571648 C8.05660002,5.30571648 15.5548277,5.30571648 23.0530555,5.30571648 C23.3504243,5.30571648 23.5914893,5.54678155 23.5914893,5.84415037 L23.5914893,30.9168853 C23.5914893,31.2142541 23.3504243,31.4553191 23.0530555,31.4553191 L2.94888242,31.4553191 C1.32022994,31.4553191 -5.3749673e-05,30.1350355 -5.3749673e-05,28.506383 L-5.3749673e-05,4.73724686 Z" id="Combined-Shape" fill="#FF7A80"></path>
            <path d="M5.61702128,24.6333268 L11.6997534,24.6336837 C15.1652023,24.6336837 17.9744681,21.7066811 17.9744681,18.096283 C17.9744681,14.4858849 15.1652023,11.5588823 11.6997534,11.5588823 L5.61702128,11.5592392 L5.61702128,24.6333268 Z" id="Path" fill="#FFBCBF"></path>
            <path d="M5.64737579,11.5588823 C5.63722795,11.5588823 5.62716912,11.5592392 5.61702128,11.5592392 L5.61702128,24.6333268 C5.62716912,24.6333268 5.63722795,24.6336837 5.64737579,24.6336837 C9.24985968,24.6336837 12.1702127,21.7067903 12.1702127,18.0963276 C12.1702127,14.4858649 9.24985968,11.5588823 5.64737579,11.5588823" id="Path" fill="#FFFFFF"></path>
        </g>
    </g>
</svg>